<svg width="196" height="36" viewBox="0 0 196 36" fill="none" xmlns="http://www.w3.org/2000/svg">
<path d="M19.9716 0.626908V14.2938C18.9113 10.6022 16.0836 8.04945 10.8604 8.04945C4.81236 8.04945 0.413818 12.1338 0.413818 18.2996C0.413818 24.3869 4.93018 28.4713 10.8604 28.4713C16.0444 28.4713 18.9113 25.2902 19.9716 21.7556V22.9731C19.9716 25.3295 20.3251 28 20.3251 28H25.0771V0.626908H19.9716ZM12.5098 24.5047C8.34691 24.5047 5.63709 22.0305 5.63709 18.2996C5.63709 14.5295 8.11127 12.016 12.5098 12.016C17.0655 12.016 19.9716 14.2938 19.9716 18.2996C19.9716 22.0305 17.1047 24.5047 12.5098 24.5047ZM48.017 21.52C47.3886 23.3658 45.0715 24.5833 41.8119 24.5833C37.4133 24.5833 34.7821 22.2662 34.4286 19.0458H53.0439C53.3581 11.6233 49.4308 8.04945 41.8119 8.04945C34.2322 8.04945 29.2839 11.8982 29.2839 18.2996C29.2839 24.7796 34.4679 28.4713 41.9297 28.4713C48.5668 28.4713 52.2584 25.5651 52.9261 21.52H48.017ZM41.537 11.9375C45.3857 11.9375 47.6635 13.5869 47.9777 16.2575H34.6642C35.3319 13.7833 37.7668 11.9375 41.537 11.9375ZM56.8429 0.66618V28H61.9484V0.66618H56.8429ZM80.8183 8.04945C75.595 8.04945 72.7674 10.5629 71.707 14.2545V13.6655L71.4321 8.52073H66.6016V35.8545H71.707V21.7949C72.8067 25.3295 75.6343 28.4713 80.8183 28.4713C86.5914 28.4713 91.2648 24.4655 91.2648 18.2996C91.2648 12.2124 86.6699 8.04945 80.8183 8.04945ZM79.1688 24.5047C74.731 24.5047 71.9034 22.2269 71.707 18.7316V17.8676C71.9427 14.1367 75.0845 12.016 79.1688 12.016C83.5281 12.016 86.0416 14.5295 86.0416 18.2996C86.0416 22.0698 83.3317 24.5047 79.1688 24.5047ZM109.161 8.04945C104.291 8.04945 101.149 11.0342 100.089 14.0975V0.66618H94.9832V28H100.089V16.4931C100.953 14.3331 103.662 12.4873 107.001 12.4873C110.967 12.4873 112.499 14.1367 112.499 17.3178V28H117.604V15.5505C117.604 10.4844 113.952 8.04945 109.161 8.04945ZM138.081 8.52073L131.523 22.816L125.082 8.52073H119.662L129.009 27.8429L124.729 35.8545H129.991L143.501 8.52073H138.081ZM160.141 8.04945C155.271 8.04945 152.09 10.9556 151.069 14.1367V8.52073H145.963V28H151.069V16.4145C151.933 14.2153 154.8 12.1731 158.334 12.1731C161.908 12.1731 163.44 13.7047 163.44 17.0036V28H168.545V16.1004C168.545 10.5629 164.932 8.04945 160.141 8.04945ZM190.594 21.52C189.965 23.3658 187.648 24.5833 184.389 24.5833C179.99 24.5833 177.359 22.2662 177.005 19.0458H195.621C195.935 11.6233 192.008 8.04945 184.389 8.04945C176.809 8.04945 171.861 11.8982 171.861 18.2996C171.861 24.7796 177.045 28.4713 184.507 28.4713C191.144 28.4713 194.835 25.5651 195.503 21.52H190.594ZM184.114 11.9375C187.963 11.9375 190.24 13.5869 190.555 16.2575H177.241C177.909 13.7833 180.344 11.9375 184.114 11.9375Z" fill="#181818"/>
</svg>
