<svg width="54" height="54" viewBox="0 0 54 54" fill="none" xmlns="http://www.w3.org/2000/svg">
<path fill-rule="evenodd" clip-rule="evenodd" d="M34.012 53.0805C31.7759 53.6802 29.4253 54 27 54C25.4636 54 23.9572 53.8717 22.4909 53.6252C21.445 51.6297 21.7405 48.8551 22.7883 46.4794C24.3641 42.9063 28.3969 41.3979 32.2619 40.8395C34.0785 40.5771 35.8781 40.4425 37.6471 40.4154C38.2569 43.655 37.9131 46.2495 37.3669 47.7121C36.4794 50.089 35.31 51.8338 34.012 53.0805ZM18.2202 52.5404C15.7185 51.6806 13.3829 50.4636 11.2743 48.9503C12.4406 45.9238 14.4529 42.575 17.7414 39.1824C20.8943 35.9724 29.143 26.3188 23.4788 25.5096C23.2202 25.4727 22.9785 25.4433 22.7532 25.4207L5.01304 22.5363L3.91853 23.5254L9.05468 29.2624L4.97243 31.3997L8.92763 31.9618C13.6736 32.6364 18.4837 31.2759 22.1733 28.2154L22.9827 27.544L22.9867 27.5074C22.912 28.56 20.8321 30.5049 17.7892 33.3503L17.7892 33.3503C17.5196 33.6023 17.2426 33.8614 16.9587 34.1276C12.8557 37.9741 9.44791 41.612 7.02531 45.1665C2.66068 40.3702 0 33.9958 0 27C0 12.0883 12.0883 0 27 0C41.9117 0 54 12.0883 54 27C54 30.9393 53.1564 34.6815 51.6399 38.0559C48.6317 37.4015 45.7659 36.9695 43.0654 36.7368C40.7949 31.9403 36.4865 27.0736 30.8797 21.8173C30.5968 21.5521 30.3207 21.2939 30.0522 21.0428L30.0492 21.0401C27.0087 18.1969 24.9297 16.2528 24.8519 15.1996L24.8556 15.2337L25.665 15.9052C29.3546 18.9656 34.1647 20.3262 38.9107 19.6516L42.8659 19.0895L38.7836 16.9521L43.9198 11.2152L42.8253 10.2261L25.0856 13.1104C24.8601 13.133 24.6183 13.1624 24.3596 13.1994C18.6954 14.0085 26.9441 23.6621 30.097 26.8721C33.3573 30.2357 35.3633 33.5563 36.534 36.5623C28.9264 36.8493 23.1755 38.9398 20.0133 42.1019C17.8069 44.3083 17.4821 48.934 18.2202 52.5404ZM49.5961 41.7845C48.1544 43.9835 46.4003 45.9593 44.397 47.6489C44.982 45.3485 44.9881 43.0863 44.4931 40.8287C46.2542 41.0647 47.9606 41.3912 49.5961 41.7845ZM17.5527 25.4703C16.7769 26.8996 15.0412 29.7688 10.9291 26.3466L17.5527 25.4703ZM30.2856 13.16C31.0614 14.5894 32.7971 17.4586 36.9092 14.0364L30.2856 13.16Z" fill="#C292F0"/>
</svg>
