<svg width="32" height="32" viewBox="0 0 32 32" fill="none" xmlns="http://www.w3.org/2000/svg">
<path fill-rule="evenodd" clip-rule="evenodd" d="M16 0C7.16326 0 0 7.16326 0 16C0 24.8367 7.16326 32 16 32C24.8367 32 32 24.8367 32 16C32 7.16563 24.8344 0 16 0ZM24.8415 12.5796C24.851 12.7621 24.8533 12.9446 24.8533 13.1295C24.8533 18.7425 20.5796 25.2184 12.7644 25.2184C10.3656 25.2184 8.13274 24.5144 6.25304 23.3102C6.58489 23.3505 6.92385 23.3695 7.26756 23.3695C9.25867 23.3695 11.091 22.6916 12.544 21.5514C10.6833 21.5159 9.11644 20.288 8.576 18.6003C8.83437 18.6501 9.09986 18.6761 9.37482 18.6761C9.76356 18.6761 10.1381 18.624 10.4936 18.5268C8.54993 18.1381 7.08504 16.4196 7.08504 14.3621C7.08504 14.3431 7.08504 14.3265 7.08504 14.3076C7.65867 14.6252 8.31289 14.8172 9.00978 14.8385C7.86963 14.0776 7.11822 12.7763 7.11822 11.3019C7.11822 10.5244 7.32918 9.79437 7.69422 9.16622C9.78963 11.7357 12.9209 13.4281 16.4504 13.6059C16.3769 13.2954 16.3413 12.9707 16.3413 12.6364C16.3413 10.2898 18.2447 8.38874 20.5914 8.38874C21.8121 8.38874 22.9167 8.90548 23.6919 9.73037C24.659 9.54074 25.5692 9.18519 26.3893 8.69926C26.0717 9.69244 25.3985 10.5244 24.5215 11.0483C25.3819 10.9464 26.1997 10.7188 26.9606 10.3799C26.3917 11.2308 25.6711 11.9799 24.8415 12.5796Z" fill="#C292F0"/>
</svg>
