<svg width="32" height="32" viewBox="0 0 32 32" fill="none" xmlns="http://www.w3.org/2000/svg">
<path d="M15.9976 5.88109e-07C7.16089 5.88109e-07 -0.00236978 7.16563 5.88109e-07 16.0024V16.0047C5.88109e-07 24.8391 7.16563 32.0024 16 32C16 32 16 32 16.0024 32C24.8391 32 32.0024 24.8344 32 15.9976C31.9976 7.16089 24.8344 -0.00236978 15.9976 5.88109e-07ZM26.2779 21.2717C24.7016 22.445 22.9357 23.3363 21.0536 23.9076C20.6293 23.3363 20.2548 22.7295 19.9348 22.0966C20.5464 21.8667 21.1366 21.5846 21.7007 21.2504C21.5562 21.1413 21.4092 21.0299 21.2693 20.9138C17.9627 22.4782 14.1298 22.4782 10.8207 20.9138C10.6833 21.0252 10.5434 21.1366 10.3964 21.248C10.9582 21.5799 11.5461 21.8619 12.1576 22.0895C11.8353 22.7247 11.4607 23.3316 11.0388 23.9052C9.15911 23.3339 7.39319 22.4403 5.81452 21.2693C5.45185 17.4199 6.17956 13.5087 8.86756 9.50281C10.2234 8.87467 11.6551 8.43141 13.1295 8.18252C13.3357 8.54519 13.523 8.9197 13.6889 9.30133C15.2533 9.06904 16.8439 9.06904 18.4083 9.30133C18.5553 8.94578 18.7662 8.50963 18.9535 8.18252C20.4255 8.43141 21.8548 8.87467 23.2107 9.49807C25.5407 12.9327 26.7022 16.8059 26.2779 21.2717Z" fill="#C292F0"/>
<path d="M12.6149 14.739C11.5766 14.739 10.7612 15.68 10.7612 16.8249C10.7612 17.9698 11.598 18.9037 12.6149 18.9037C13.6531 18.9037 14.4614 17.9674 14.4709 16.8201C14.4803 15.6729 13.6507 14.739 12.6149 14.739Z" fill="#C292F0"/>
<path d="M19.4703 14.739C18.4321 14.739 17.6167 15.68 17.6167 16.8249C17.6167 17.9698 18.4534 18.9037 19.4703 18.9037C20.5086 18.9037 21.3145 17.9674 21.324 16.8201C21.3358 15.6729 20.5086 14.739 19.4703 14.739Z" fill="#C292F0"/>
</svg>
