<svg width="32" height="32" viewBox="0 0 32 32" fill="none" xmlns="http://www.w3.org/2000/svg">
<path d="M16 0C7.16326 0 0 7.16326 0 16C0 24.8367 7.16326 32 16 32C24.8367 32 32 24.8367 32 16C32 7.16326 24.8367 0 16 0ZM26.0124 20.1529C25.9627 21.2243 25.7944 21.9567 25.5431 22.5991C25.2847 23.2604 24.941 23.8222 24.3816 24.384C23.8222 24.9434 23.2604 25.2895 22.5967 25.5455C21.9567 25.7944 21.2243 25.965 20.1505 26.0148C19.0767 26.0646 18.733 26.0764 15.9976 26.0764C13.2622 26.0764 12.9185 26.0646 11.8447 26.0148C10.7733 25.965 10.0409 25.7967 9.39852 25.5455C8.73719 25.2871 8.17541 24.9434 7.61363 24.384C7.05422 23.8246 6.70815 23.2628 6.45215 22.5991C6.20326 21.9591 6.03259 21.2267 5.98281 20.1529C5.93778 19.0791 5.92593 18.7354 5.92593 16C5.92593 13.2646 5.93778 12.9209 5.98756 11.8471C6.03733 10.7757 6.20563 10.0433 6.45689 9.40089C6.71526 8.73956 7.05896 8.17778 7.61837 7.616C8.17778 7.05659 8.73956 6.71052 9.40326 6.45452C10.0433 6.20563 10.7757 6.03496 11.8495 5.98519C12.9209 5.93778 13.2646 5.92593 16 5.92593C18.7354 5.92593 19.0791 5.93778 20.1529 5.98756C21.2243 6.03733 21.9567 6.20563 22.5991 6.45689C23.2604 6.71526 23.8222 7.05896 24.384 7.61837C24.9434 8.17778 25.2895 8.73956 25.5455 9.40326C25.7944 10.0433 25.965 10.7757 26.0148 11.8495C26.0646 12.9233 26.0764 13.267 26.0764 16.0024C26.0741 18.7354 26.0622 19.0791 26.0124 20.1529Z" fill="#C292F0"/>
<path d="M16.974 19.2145C18.7494 18.677 19.7529 16.8019 19.2153 15.0264C18.6777 13.251 16.8027 12.2475 15.0272 12.7851C13.2518 13.3227 12.2483 15.1978 12.7859 16.9732C13.3235 18.7486 15.1985 19.7521 16.974 19.2145Z" fill="#C292F0"/>
<path d="M23.8531 10.0574C23.6706 9.58809 23.4525 9.25149 23.0993 8.89831C22.7461 8.54512 22.4119 8.32705 21.9402 8.14453C21.5847 8.00705 21.0513 7.84349 20.07 7.79846C19.0081 7.75105 18.6881 7.7392 16.0001 7.7392C13.3097 7.7392 12.9921 7.74868 11.9301 7.79846C10.9488 7.84349 10.4155 8.00705 10.0599 8.14453C9.59059 8.32705 9.254 8.54512 8.90081 8.89831C8.54762 9.25149 8.32955 9.58571 8.14703 10.0574C8.00955 10.413 7.846 10.9463 7.80096 11.9276C7.75355 12.9896 7.7417 13.3096 7.7417 15.9976C7.7417 18.6879 7.75118 19.0056 7.80096 20.0675C7.846 21.0488 8.00955 21.5822 8.14703 21.9377C8.32955 22.407 8.54762 22.7436 8.90081 23.0968C9.254 23.45 9.58822 23.6681 10.0599 23.8506C10.4155 23.9881 10.9488 24.1516 11.9301 24.1967C12.9921 24.2441 13.3097 24.2559 16.0001 24.2559C18.6904 24.2559 19.0081 24.2465 20.07 24.1967C21.0513 24.1516 21.5847 23.9881 21.9402 23.8506C22.4096 23.6681 22.7461 23.45 23.0993 23.0968C23.4525 22.7436 23.6706 22.4094 23.8531 21.9377C23.9906 21.5822 24.1541 21.0488 24.1992 20.0675C24.2466 19.0056 24.2584 18.6856 24.2584 15.9976C24.2584 13.3072 24.249 12.9896 24.1992 11.9276C24.1565 10.9463 23.9906 10.413 23.8531 10.0574ZM16.0001 21.1721C13.1438 21.1721 10.8279 18.8562 10.8279 15.9999C10.8279 13.1436 13.1438 10.8278 16.0001 10.8278C18.8564 10.8278 21.1722 13.1436 21.1722 15.9999C21.1722 18.8562 18.8564 21.1721 16.0001 21.1721ZM21.3784 11.8305C20.71 11.8305 20.1696 11.29 20.1696 10.6216C20.1696 9.95312 20.71 9.41268 21.3784 9.41268C22.0469 9.41268 22.5873 9.95312 22.5873 10.6216C22.5873 11.29 22.0445 11.8305 21.3784 11.8305Z" fill="#C292F0"/>
</svg>
