<svg width="207" height="36" viewBox="0 0 207 36" fill="none" xmlns="http://www.w3.org/2000/svg">
<path d="M19.9716 0.626908V14.2938C18.9113 10.6022 16.0836 8.04945 10.8604 8.04945C4.81236 8.04945 0.413818 12.1338 0.413818 18.2996C0.413818 24.3869 4.93018 28.4713 10.8604 28.4713C16.0444 28.4713 18.9113 25.2902 19.9716 21.7556V22.9731C19.9716 25.3295 20.3251 28 20.3251 28H25.0771V0.626908H19.9716ZM12.5098 24.5047C8.34691 24.5047 5.63709 22.0305 5.63709 18.2996C5.63709 14.5295 8.11127 12.016 12.5098 12.016C17.0655 12.016 19.9716 14.2938 19.9716 18.2996C19.9716 22.0305 17.1047 24.5047 12.5098 24.5047ZM49.5879 21.52C48.9595 23.3658 46.6424 24.5833 43.3828 24.5833C38.9842 24.5833 36.353 22.2662 35.9995 19.0458H54.6148C54.929 11.6233 51.0017 8.04945 43.3828 8.04945C35.8031 8.04945 30.8548 11.8982 30.8548 18.2996C30.8548 24.7796 36.0388 28.4713 43.5006 28.4713C50.1377 28.4713 53.8293 25.5651 54.497 21.52H49.5879ZM43.1079 11.9375C46.9566 11.9375 49.2344 13.5869 49.5486 16.2575H36.2351C36.9028 13.7833 39.3377 11.9375 43.1079 11.9375ZM59.9847 0.66618V28H65.0902V0.66618H59.9847ZM85.531 8.04945C80.3077 8.04945 77.4801 10.5629 76.4197 14.2545V13.6655L76.1448 8.52073H71.3143V35.8545H76.4197V21.7949C77.5194 25.3295 80.347 28.4713 85.531 28.4713C91.3041 28.4713 95.9776 24.4655 95.9776 18.2996C95.9776 12.2124 91.3826 8.04945 85.531 8.04945ZM83.8816 24.5047C79.4437 24.5047 76.6161 22.2269 76.4197 18.7316V17.8676C76.6554 14.1367 79.7972 12.016 83.8816 12.016C88.2408 12.016 90.7543 14.5295 90.7543 18.2996C90.7543 22.0698 88.0445 24.5047 83.8816 24.5047ZM115.444 8.04945C110.574 8.04945 107.433 11.0342 106.372 14.0975V0.66618H101.267V28H106.372V16.4931C107.236 14.3331 109.946 12.4873 113.284 12.4873C117.251 12.4873 118.782 14.1367 118.782 17.3178V28H123.888V15.5505C123.888 10.4844 120.236 8.04945 115.444 8.04945ZM145.936 8.52073L139.377 22.816L132.937 8.52073H127.517L136.864 27.8429L132.583 35.8545H137.846L151.355 8.52073H145.936ZM169.566 8.04945C164.696 8.04945 161.515 10.9556 160.494 14.1367V8.52073H155.389V28H160.494V16.4145C161.358 14.2153 164.225 12.1731 167.76 12.1731C171.333 12.1731 172.865 13.7047 172.865 17.0036V28H177.97V16.1004C177.97 10.5629 174.357 8.04945 169.566 8.04945ZM201.59 21.52C200.962 23.3658 198.645 24.5833 195.385 24.5833C190.987 24.5833 188.355 22.2662 188.002 19.0458H206.617C206.931 11.6233 203.004 8.04945 195.385 8.04945C187.805 8.04945 182.857 11.8982 182.857 18.2996C182.857 24.7796 188.041 28.4713 195.503 28.4713C202.14 28.4713 205.832 25.5651 206.499 21.52H201.59ZM195.11 11.9375C198.959 11.9375 201.237 13.5869 201.551 16.2575H188.237C188.905 13.7833 191.34 11.9375 195.11 11.9375Z" fill="#181818"/>
</svg>
